<svg width="64" height="73" viewBox="0 0 64 73" fill="none" xmlns="http://www.w3.org/2000/svg">
<path d="M2.90122 67.634L2.83122 65.926L8.38922 60.2H9.98522L5.68722 64.736L4.90322 65.604L2.90122 67.634ZM1.66922 70V60.2H3.06922V70H1.66922ZM8.61322 70L4.59522 65.324L5.53322 64.288L10.2512 70H8.61322ZM13.4278 70V66.248L13.7498 67.116L9.5358 60.2H11.0338L14.5758 66.038H13.7638L17.3198 60.2H18.7058L14.5058 67.116L14.8138 66.248V70H13.4278ZM24.1264 70.112C23.3798 70.112 22.6844 69.986 22.0404 69.734C21.4058 69.482 20.8551 69.132 20.3884 68.684C19.9218 68.2267 19.5578 67.6947 19.2964 67.088C19.0351 66.4813 18.9044 65.8187 18.9044 65.1C18.9044 64.3813 19.0351 63.7187 19.2964 63.112C19.5578 62.5053 19.9218 61.978 20.3884 61.53C20.8551 61.0727 21.4058 60.718 22.0404 60.466C22.6751 60.214 23.3704 60.088 24.1264 60.088C24.8731 60.088 25.5591 60.214 26.1844 60.466C26.8191 60.7087 27.3698 61.0587 27.8364 61.516C28.3124 61.964 28.6764 62.4913 28.9284 63.098C29.1898 63.7047 29.3204 64.372 29.3204 65.1C29.3204 65.828 29.1898 66.4953 28.9284 67.102C28.6764 67.7087 28.3124 68.2407 27.8364 68.698C27.3698 69.146 26.8191 69.496 26.1844 69.748C25.5591 69.9907 24.8731 70.112 24.1264 70.112ZM24.1264 68.866C24.6678 68.866 25.1671 68.7727 25.6244 68.586C26.0911 68.3993 26.4924 68.138 26.8284 67.802C27.1738 67.4567 27.4398 67.0553 27.6264 66.598C27.8224 66.1407 27.9204 65.6413 27.9204 65.1C27.9204 64.5587 27.8224 64.0593 27.6264 63.602C27.4398 63.1447 27.1738 62.748 26.8284 62.412C26.4924 62.0667 26.0911 61.8007 25.6244 61.614C25.1671 61.4273 24.6678 61.334 24.1264 61.334C23.5758 61.334 23.0671 61.4273 22.6004 61.614C22.1431 61.8007 21.7418 62.0667 21.3964 62.412C21.0511 62.748 20.7804 63.1447 20.5844 63.602C20.3978 64.0593 20.3044 64.5587 20.3044 65.1C20.3044 65.6413 20.3978 66.1407 20.5844 66.598C20.7804 67.0553 21.0511 67.4567 21.3964 67.802C21.7418 68.138 22.1431 68.3993 22.6004 68.586C23.0671 68.7727 23.5758 68.866 24.1264 68.866ZM35.8422 70.112C35.0956 70.112 34.4049 69.9907 33.7702 69.748C33.1449 69.496 32.5989 69.146 32.1322 68.698C31.6749 68.2407 31.3156 67.7087 31.0542 67.102C30.7929 66.4953 30.6622 65.828 30.6622 65.1C30.6622 64.372 30.7929 63.7047 31.0542 63.098C31.3156 62.4913 31.6796 61.964 32.1462 61.516C32.6129 61.0587 33.1589 60.7087 33.7842 60.466C34.4189 60.214 35.1096 60.088 35.8562 60.088C36.6122 60.088 37.3076 60.2187 37.9422 60.48C38.5862 60.732 39.1322 61.11 39.5802 61.614L38.6702 62.496C38.2969 62.104 37.8769 61.8147 37.4102 61.628C36.9436 61.432 36.4442 61.334 35.9122 61.334C35.3616 61.334 34.8482 61.4273 34.3722 61.614C33.9056 61.8007 33.4996 62.062 33.1542 62.398C32.8089 62.734 32.5382 63.1353 32.3422 63.602C32.1556 64.0593 32.0622 64.5587 32.0622 65.1C32.0622 65.6413 32.1556 66.1453 32.3422 66.612C32.5382 67.0693 32.8089 67.466 33.1542 67.802C33.4996 68.138 33.9056 68.3993 34.3722 68.586C34.8482 68.7727 35.3616 68.866 35.9122 68.866C36.4442 68.866 36.9436 68.7727 37.4102 68.586C37.8769 68.39 38.2969 68.0913 38.6702 67.69L39.5802 68.572C39.1322 69.076 38.5862 69.4587 37.9422 69.72C37.3076 69.9813 36.6076 70.112 35.8422 70.112ZM45.3434 62.51C45.9501 62.51 46.4821 62.6267 46.9394 62.86C47.4061 63.0933 47.7701 63.448 48.0314 63.924C48.2928 64.4 48.4234 65.002 48.4234 65.73V70H47.0794V65.884C47.0794 65.1653 46.9021 64.624 46.5474 64.26C46.2021 63.896 45.7121 63.714 45.0774 63.714C44.6014 63.714 44.1861 63.8073 43.8314 63.994C43.4768 64.1807 43.2014 64.456 43.0054 64.82C42.8188 65.184 42.7254 65.6367 42.7254 66.178V70H41.3814V59.612H42.7254V64.582L42.4594 64.05C42.7021 63.5647 43.0754 63.1867 43.5794 62.916C44.0834 62.6453 44.6714 62.51 45.3434 62.51ZM55.5167 70V68.432L55.4467 68.138V65.464C55.4467 64.8947 55.2787 64.456 54.9427 64.148C54.6161 63.8307 54.1214 63.672 53.4587 63.672C53.0201 63.672 52.5907 63.7467 52.1707 63.896C51.7507 64.036 51.3961 64.2273 51.1067 64.47L50.5467 63.462C50.9294 63.154 51.3867 62.9207 51.9187 62.762C52.4601 62.594 53.0247 62.51 53.6127 62.51C54.6301 62.51 55.4141 62.7573 55.9647 63.252C56.5154 63.7467 56.7907 64.5027 56.7907 65.52V70H55.5167ZM53.0807 70.084C52.5301 70.084 52.0447 69.9907 51.6247 69.804C51.2141 69.6173 50.8967 69.3607 50.6727 69.034C50.4487 68.698 50.3367 68.32 50.3367 67.9C50.3367 67.4987 50.4301 67.1347 50.6167 66.808C50.8127 66.4813 51.1254 66.22 51.5547 66.024C51.9934 65.828 52.5814 65.73 53.3187 65.73H55.6707V66.696H53.3747C52.7027 66.696 52.2501 66.808 52.0167 67.032C51.7834 67.256 51.6667 67.5267 51.6667 67.844C51.6667 68.208 51.8114 68.502 52.1007 68.726C52.3901 68.9407 52.7914 69.048 53.3047 69.048C53.8087 69.048 54.2474 68.936 54.6207 68.712C55.0034 68.488 55.2787 68.1613 55.4467 67.732L55.7127 68.656C55.5354 69.0947 55.2227 69.4447 54.7747 69.706C54.3267 69.958 53.7621 70.084 53.0807 70.084ZM61.8259 70.084C61.0792 70.084 60.5006 69.8833 60.0899 69.482C59.6792 69.0807 59.4739 68.5067 59.4739 67.76V60.956H60.8179V67.704C60.8179 68.1053 60.9159 68.4133 61.1119 68.628C61.3172 68.8427 61.6066 68.95 61.9799 68.95C62.3999 68.95 62.7499 68.8333 63.0299 68.6L63.4499 69.566C63.2446 69.7433 62.9972 69.874 62.7079 69.958C62.4279 70.042 62.1339 70.084 61.8259 70.084ZM58.2139 63.686V62.58H62.9459V63.686H58.2139Z" fill="black"/>
<path d="M19 9C16.1319 9 13.8 11.3544 13.8 14.2502V23.4381H10.8506C10.4037 22.6506 9.55875 22.1256 8.6 22.1256C7.16187 22.1256 6 23.2987 6 24.7507C6 26.2027 7.16187 27.3758 8.6 27.3758C9.55875 27.3758 10.4037 26.8508 10.8506 26.0632H13.8V37.8762C13.8 40.7721 16.1319 43.1265 19 43.1265H24.2V49.6893C24.2 50.1897 24.4762 50.6409 24.915 50.8623C25.3538 51.0838 25.8819 51.0346 26.28 50.7393L36.3306 43.1265H45C47.8681 43.1265 50.2 40.7721 50.2 37.8762V26.0632H53.1494C53.5962 26.8508 54.4412 27.3758 55.4 27.3758C56.8381 27.3758 58 26.2027 58 24.7507C58 23.2987 56.8381 22.1256 55.4 22.1256C54.4412 22.1256 53.5962 22.6506 53.1494 23.4381H50.2V14.2502C50.2 11.3544 47.8681 9 45 9H19ZM19 19.5005C19 18.0484 20.1619 16.8753 21.6 16.8753H42.4C43.8381 16.8753 45 18.0484 45 19.5005V30.0009C45 31.4529 43.8381 32.626 42.4 32.626H21.6C20.1619 32.626 19 31.4529 19 30.0009V19.5005ZM24.2 27.3758C24.8896 27.3758 25.5509 27.0992 26.0385 26.6069C26.5261 26.1146 26.8 25.4469 26.8 24.7507C26.8 24.0545 26.5261 23.3867 26.0385 22.8944C25.5509 22.4021 24.8896 22.1256 24.2 22.1256C23.5104 22.1256 22.8491 22.4021 22.3615 22.8944C21.8739 23.3867 21.6 24.0545 21.6 24.7507C21.6 25.4469 21.8739 26.1146 22.3615 26.6069C22.8491 27.0992 23.5104 27.3758 24.2 27.3758ZM39.8 27.3758C40.4896 27.3758 41.1509 27.0992 41.6385 26.6069C42.1261 26.1146 42.4 25.4469 42.4 24.7507C42.4 24.0545 42.1261 23.3867 41.6385 22.8944C41.1509 22.4021 40.4896 22.1256 39.8 22.1256C39.1104 22.1256 38.4491 22.4021 37.9615 22.8944C37.4739 23.3867 37.2 24.0545 37.2 24.7507C37.2 25.4469 37.4739 26.1146 37.9615 26.6069C38.4491 27.0992 39.1104 27.3758 39.8 27.3758Z" fill="#7879F1"/>
<line x1="31.65" y1="4" x2="31.65" y2="9" stroke="#7879F1" stroke-width="2.5"/>
<circle cx="31.625" cy="2.625" r="2.625" fill="#7879F1"/>
</svg>
